<?xml version="1.0" encoding="UTF-8"?>
<svg width="161px" height="86px" viewBox="0 0 161 86" version="1.1" xmlns="http://www.w3.org/2000/svg" xmlns:xlink="http://www.w3.org/1999/xlink">
    <!-- Generator: Sketch 51.3 (57544) - http://www.bohemiancoding.com/sketch -->
    <title>Group</title>
    <desc>Created with Sketch.</desc>
    <defs>
        <path d="M12.6666667,3.33333333 L12.6666667,12.6666667 L3.33333333,12.6666667 L3.33333333,3.33333333 L12.6666667,3.33333333 Z M12.6666667,2 L3.33333333,2 C2.6,2 2,2.6 2,3.33333333 L2,12.6666667 C2,13.4 2.6,14 3.33333333,14 L12.6666667,14 C13.4,14 14,13.4 14,12.6666667 L14,3.33333333 C14,2.6 13.4,2 12.6666667,2 Z" id="path-1"></path>
        <path d="M12.6666667,2 L3.33333333,2 C2.59333333,2 2,2.6 2,3.33333333 L2,12.6666667 C2,13.4 2.59333333,14 3.33333333,14 L12.6666667,14 C13.4066667,14 14,13.4 14,12.6666667 L14,3.33333333 C14,2.6 13.4066667,2 12.6666667,2 Z M6.66666667,11.3333333 L3.33333333,8 L4.27333333,7.06 L6.66666667,9.44666667 L11.7266667,4.38666667 L12.6666667,5.33333333 L6.66666667,11.3333333 Z" id="path-3"></path>
        <path d="M8.66666667,4.66666667 L7.33333333,4.66666667 L7.33333333,7.33333333 L4.66666667,7.33333333 L4.66666667,8.66666667 L7.33333333,8.66666667 L7.33333333,11.3333333 L8.66666667,11.3333333 L8.66666667,8.66666667 L11.3333333,8.66666667 L11.3333333,7.33333333 L8.66666667,7.33333333 L8.66666667,4.66666667 Z M8,1.33333333 C4.32,1.33333333 1.33333333,4.32 1.33333333,8 C1.33333333,11.68 4.32,14.6666667 8,14.6666667 C11.68,14.6666667 14.6666667,11.68 14.6666667,8 C14.6666667,4.32 11.68,1.33333333 8,1.33333333 Z M8,13.3333333 C5.06,13.3333333 2.66666667,10.94 2.66666667,8 C2.66666667,5.06 5.06,2.66666667 8,2.66666667 C10.94,2.66666667 13.3333333,5.06 13.3333333,8 C13.3333333,10.94 10.94,13.3333333 8,13.3333333 Z" id="path-5"></path>
        <path d="M4.66666667,7.33333333 L4.66666667,8.66666667 L11.3333333,8.66666667 L11.3333333,7.33333333 L4.66666667,7.33333333 Z M8,1.33333333 C4.32,1.33333333 1.33333333,4.32 1.33333333,8 C1.33333333,11.68 4.32,14.6666667 8,14.6666667 C11.68,14.6666667 14.6666667,11.68 14.6666667,8 C14.6666667,4.32 11.68,1.33333333 8,1.33333333 Z M8,13.3333333 C5.06,13.3333333 2.66666667,10.94 2.66666667,8 C2.66666667,5.06 5.06,2.66666667 8,2.66666667 C10.94,2.66666667 13.3333333,5.06 13.3333333,8 C13.3333333,10.94 10.94,13.3333333 8,13.3333333 Z" id="path-7"></path>
        <path d="M8,1.33333333 C4.32,1.33333333 1.33333333,4.32 1.33333333,8 C1.33333333,11.68 4.32,14.6666667 8,14.6666667 C11.68,14.6666667 14.6666667,11.68 14.6666667,8 C14.6666667,4.32 11.68,1.33333333 8,1.33333333 Z M11.3333333,8.66666667 L8.66666667,8.66666667 L8.66666667,11.3333333 L7.33333333,11.3333333 L7.33333333,8.66666667 L4.66666667,8.66666667 L4.66666667,7.33333333 L7.33333333,7.33333333 L7.33333333,4.66666667 L8.66666667,4.66666667 L8.66666667,7.33333333 L11.3333333,7.33333333 L11.3333333,8.66666667 Z" id="path-9"></path>
        <path d="M8,1.33333333 C4.32,1.33333333 1.33333333,4.32 1.33333333,8 C1.33333333,11.68 4.32,14.6666667 8,14.6666667 C11.68,14.6666667 14.6666667,11.68 14.6666667,8 C14.6666667,4.32 11.68,1.33333333 8,1.33333333 Z M11.3333333,8.66666667 L4.66666667,8.66666667 L4.66666667,7.33333333 L11.3333333,7.33333333 L11.3333333,8.66666667 Z" id="path-11"></path>
        <path d="M8,1.33333333 C4.32,1.33333333 1.33333333,4.32 1.33333333,8 C1.33333333,11.68 4.32,14.6666667 8,14.6666667 C11.68,14.6666667 14.6666667,11.68 14.6666667,8 C14.6666667,4.32 11.68,1.33333333 8,1.33333333 Z M8,13.3333333 C5.05333333,13.3333333 2.66666667,10.9466667 2.66666667,8 C2.66666667,5.05333333 5.05333333,2.66666667 8,2.66666667 C10.9466667,2.66666667 13.3333333,5.05333333 13.3333333,8 C13.3333333,10.9466667 10.9466667,13.3333333 8,13.3333333 Z" id="path-13"></path>
        <path d="M8,1.33333333 C4.32,1.33333333 1.33333333,4.32 1.33333333,8 C1.33333333,11.68 4.32,14.6666667 8,14.6666667 C11.68,14.6666667 14.6666667,11.68 14.6666667,8 C14.6666667,4.32 11.68,1.33333333 8,1.33333333 Z M8,13.3333333 C5.05333333,13.3333333 2.66666667,10.9466667 2.66666667,8 C2.66666667,5.05333333 5.05333333,2.66666667 8,2.66666667 C10.9466667,2.66666667 13.3333333,5.05333333 13.3333333,8 C13.3333333,10.9466667 10.9466667,13.3333333 8,13.3333333 Z M8,11.3333333 C9.84094917,11.3333333 11.3333333,9.84094917 11.3333333,8 C11.3333333,6.15905083 9.84094917,4.66666667 8,4.66666667 C6.15905083,4.66666667 4.66666667,6.15905083 4.66666667,8 C4.66666667,9.84094917 6.15905083,11.3333333 8,11.3333333 Z" id="path-15"></path>
        <path d="M12.6666667,3.33333333 L12.6666667,12.6666667 L3.33333333,12.6666667 L3.33333333,3.33333333 L12.6666667,3.33333333 Z M12.6666667,2 L3.33333333,2 C2.6,2 2,2.6 2,3.33333333 L2,12.6666667 C2,13.4 2.6,14 3.33333333,14 L12.6666667,14 C13.4,14 14,13.4 14,12.6666667 L14,3.33333333 C14,2.6 13.4,2 12.6666667,2 Z" id="path-17"></path>
        <path d="M12.6666667,2 L3.33333333,2 C2.59333333,2 2,2.6 2,3.33333333 L2,12.6666667 C2,13.4 2.59333333,14 3.33333333,14 L12.6666667,14 C13.4066667,14 14,13.4 14,12.6666667 L14,3.33333333 C14,2.6 13.4066667,2 12.6666667,2 Z M6.66666667,11.3333333 L3.33333333,8 L4.27333333,7.06 L6.66666667,9.44666667 L11.7266667,4.38666667 L12.6666667,5.33333333 L6.66666667,11.3333333 Z" id="path-19"></path>
        <path d="M8,1.33333333 C4.32,1.33333333 1.33333333,4.32 1.33333333,8 C1.33333333,11.68 4.32,14.6666667 8,14.6666667 C11.68,14.6666667 14.6666667,11.68 14.6666667,8 C14.6666667,4.32 11.68,1.33333333 8,1.33333333 Z M8,13.3333333 C5.05333333,13.3333333 2.66666667,10.9466667 2.66666667,8 C2.66666667,5.05333333 5.05333333,2.66666667 8,2.66666667 C10.9466667,2.66666667 13.3333333,5.05333333 13.3333333,8 C13.3333333,10.9466667 10.9466667,13.3333333 8,13.3333333 Z" id="path-21"></path>
        <path d="M8,1.33333333 C4.32,1.33333333 1.33333333,4.32 1.33333333,8 C1.33333333,11.68 4.32,14.6666667 8,14.6666667 C11.68,14.6666667 14.6666667,11.68 14.6666667,8 C14.6666667,4.32 11.68,1.33333333 8,1.33333333 Z M8,13.3333333 C5.05333333,13.3333333 2.66666667,10.9466667 2.66666667,8 C2.66666667,5.05333333 5.05333333,2.66666667 8,2.66666667 C10.9466667,2.66666667 13.3333333,5.05333333 13.3333333,8 C13.3333333,10.9466667 10.9466667,13.3333333 8,13.3333333 Z M8,11.3333333 C9.84094917,11.3333333 11.3333333,9.84094917 11.3333333,8 C11.3333333,6.15905083 9.84094917,4.66666667 8,4.66666667 C6.15905083,4.66666667 4.66666667,6.15905083 4.66666667,8 C4.66666667,9.84094917 6.15905083,11.3333333 8,11.3333333 Z" id="path-23"></path>
        <path d="M4.66666667,7.33333333 L4.66666667,8.66666667 L11.3333333,8.66666667 L11.3333333,7.33333333 L4.66666667,7.33333333 Z M8,1.33333333 C4.32,1.33333333 1.33333333,4.32 1.33333333,8 C1.33333333,11.68 4.32,14.6666667 8,14.6666667 C11.68,14.6666667 14.6666667,11.68 14.6666667,8 C14.6666667,4.32 11.68,1.33333333 8,1.33333333 Z M8,13.3333333 C5.06,13.3333333 2.66666667,10.94 2.66666667,8 C2.66666667,5.06 5.06,2.66666667 8,2.66666667 C10.94,2.66666667 13.3333333,5.06 13.3333333,8 C13.3333333,10.94 10.94,13.3333333 8,13.3333333 Z" id="path-25"></path>
        <path d="M8,1.33333333 C4.32,1.33333333 1.33333333,4.32 1.33333333,8 C1.33333333,11.68 4.32,14.6666667 8,14.6666667 C11.68,14.6666667 14.6666667,11.68 14.6666667,8 C14.6666667,4.32 11.68,1.33333333 8,1.33333333 Z M11.3333333,8.66666667 L4.66666667,8.66666667 L4.66666667,7.33333333 L11.3333333,7.33333333 L11.3333333,8.66666667 Z" id="path-27"></path>
        <path d="M12.6666667,3.33333333 L12.6666667,12.6666667 L3.33333333,12.6666667 L3.33333333,3.33333333 L12.6666667,3.33333333 Z M12.6666667,2 L3.33333333,2 C2.6,2 2,2.6 2,3.33333333 L2,12.6666667 C2,13.4 2.6,14 3.33333333,14 L12.6666667,14 C13.4,14 14,13.4 14,12.6666667 L14,3.33333333 C14,2.6 13.4,2 12.6666667,2 Z" id="path-29"></path>
        <path d="M12.6666667,2 L3.33333333,2 C2.59333333,2 2,2.6 2,3.33333333 L2,12.6666667 C2,13.4 2.59333333,14 3.33333333,14 L12.6666667,14 C13.4066667,14 14,13.4 14,12.6666667 L14,3.33333333 C14,2.6 13.4066667,2 12.6666667,2 Z M6.66666667,11.3333333 L3.33333333,8 L4.27333333,7.06 L6.66666667,9.44666667 L11.7266667,4.38666667 L12.6666667,5.33333333 L6.66666667,11.3333333 Z" id="path-31"></path>
        <path d="M8,1.33333333 C4.32,1.33333333 1.33333333,4.32 1.33333333,8 C1.33333333,11.68 4.32,14.6666667 8,14.6666667 C11.68,14.6666667 14.6666667,11.68 14.6666667,8 C14.6666667,4.32 11.68,1.33333333 8,1.33333333 Z M8,13.3333333 C5.05333333,13.3333333 2.66666667,10.9466667 2.66666667,8 C2.66666667,5.05333333 5.05333333,2.66666667 8,2.66666667 C10.9466667,2.66666667 13.3333333,5.05333333 13.3333333,8 C13.3333333,10.9466667 10.9466667,13.3333333 8,13.3333333 Z" id="path-33"></path>
        <path d="M8,1.33333333 C4.32,1.33333333 1.33333333,4.32 1.33333333,8 C1.33333333,11.68 4.32,14.6666667 8,14.6666667 C11.68,14.6666667 14.6666667,11.68 14.6666667,8 C14.6666667,4.32 11.68,1.33333333 8,1.33333333 Z M8,13.3333333 C5.05333333,13.3333333 2.66666667,10.9466667 2.66666667,8 C2.66666667,5.05333333 5.05333333,2.66666667 8,2.66666667 C10.9466667,2.66666667 13.3333333,5.05333333 13.3333333,8 C13.3333333,10.9466667 10.9466667,13.3333333 8,13.3333333 Z M8,11.3333333 C9.84094917,11.3333333 11.3333333,9.84094917 11.3333333,8 C11.3333333,6.15905083 9.84094917,4.66666667 8,4.66666667 C6.15905083,4.66666667 4.66666667,6.15905083 4.66666667,8 C4.66666667,9.84094917 6.15905083,11.3333333 8,11.3333333 Z" id="path-35"></path>
        <path d="M12.6666667,2 L3.33333333,2 C2.6,2 2,2.6 2,3.33333333 L2,12.6666667 C2,13.4 2.6,14 3.33333333,14 L12.6666667,14 C13.4,14 14,13.4 14,12.6666667 L14,3.33333333 C14,2.6 13.4,2 12.6666667,2 Z M11.3333333,8.66666667 L4.66666667,8.66666667 L4.66666667,7.33333333 L11.3333333,7.33333333 L11.3333333,8.66666667 Z" id="path-37"></path>
    </defs>
    <g id="Page-1" stroke="none" stroke-width="1" fill="none" fill-rule="evenodd">
        <g id="Group" transform="translate(-2.000000, -1.000000)">
            <g id="icon/toggle/check_box_outline_blank_24px">
                <mask id="mask-2" fill="white">
                    <use xlink:href="#path-1"></use>
                </mask>
                <g fill-rule="nonzero"></g>
                <g id="✱-/-Color-/-Icons-/-Black-/-Inactive" mask="url(#mask-2)" fill="#000000" fill-opacity="0.54" fill-rule="evenodd">
                    <rect id="Rectangle" x="0" y="0" width="16" height="16"></rect>
                </g>
            </g>
            <g id="icon/toggle/check_box_24px" transform="translate(24.000000, 0.000000)">
                <mask id="mask-4" fill="white">
                    <use xlink:href="#path-3"></use>
                </mask>
                <g fill-rule="nonzero"></g>
                <g id="✱-/-Color-/-Icons-/-Black-/-Inactive" mask="url(#mask-4)" fill="#000000" fill-opacity="0.54" fill-rule="evenodd">
                    <rect id="Rectangle" x="0" y="0" width="16" height="16"></rect>
                </g>
            </g>
            <g id="icon/content/add_circle_outline_24px" transform="translate(124.000000, 0.000000)">
                <mask id="mask-6" fill="white">
                    <use xlink:href="#path-5"></use>
                </mask>
                <g fill-rule="nonzero"></g>
                <g id="✱-/-Color-/-Icons-/-Black-/-Active" mask="url(#mask-6)" fill="#000000" fill-opacity="0.87" fill-rule="evenodd">
                    <rect id="Rectangle-13" x="0" y="0" width="16" height="16"></rect>
                </g>
            </g>
            <g id="icon/content/remove_circle_outline_24px" transform="translate(124.000000, 24.000000)">
                <mask id="mask-8" fill="white">
                    <use xlink:href="#path-7"></use>
                </mask>
                <g fill-rule="nonzero"></g>
                <g id="✱-/-Color-/-Icons-/-Black-/-Active" mask="url(#mask-8)" fill="#000000" fill-opacity="0.87" fill-rule="evenodd">
                    <rect id="Rectangle-13" x="0" y="0" width="16" height="16"></rect>
                </g>
            </g>
            <g id="icon/content/add_circle_24px" transform="translate(148.000000, 0.000000)">
                <mask id="mask-10" fill="white">
                    <use xlink:href="#path-9"></use>
                </mask>
                <g fill-rule="nonzero"></g>
                <g id="✱-/-Color-/-Icons-/-Black-/-Active" mask="url(#mask-10)" fill="#000000" fill-opacity="0.87" fill-rule="evenodd">
                    <rect id="Rectangle-13" x="0" y="0" width="16" height="16"></rect>
                </g>
            </g>
            <g id="icon/content/remove_circle_24px" transform="translate(148.000000, 24.000000)">
                <mask id="mask-12" fill="white">
                    <use xlink:href="#path-11"></use>
                </mask>
                <g fill-rule="nonzero"></g>
                <g id="✱-/-Color-/-Icons-/-Black-/-Active" mask="url(#mask-12)" fill="#000000" fill-opacity="0.87" fill-rule="evenodd">
                    <rect id="Rectangle-13" x="0" y="0" width="16" height="16"></rect>
                </g>
            </g>
            <g id="icon/toggle/radio_button_unchecked_24px" transform="translate(48.000000, 0.000000)">
                <mask id="mask-14" fill="white">
                    <use xlink:href="#path-13"></use>
                </mask>
                <g fill-rule="nonzero"></g>
                <g id="✱-/-Color-/-Icons-/-Black-/-Inactive" mask="url(#mask-14)" fill="#000000" fill-opacity="0.54" fill-rule="evenodd">
                    <rect id="Rectangle" x="0" y="0" width="16" height="16"></rect>
                </g>
            </g>
            <g id="icon/toggle/radio_button_checked_24px" transform="translate(72.000000, 0.000000)">
                <mask id="mask-16" fill="white">
                    <use xlink:href="#path-15"></use>
                </mask>
                <g fill-rule="nonzero"></g>
                <g id="✱-/-Color-/-Icons-/-Black-/-Inactive" mask="url(#mask-16)" fill="#000000" fill-opacity="0.54" fill-rule="evenodd">
                    <rect id="Rectangle" x="0" y="0" width="16" height="16"></rect>
                </g>
            </g>
            <g id="icon/toggle/check_box_outline_blank_24px" transform="translate(0.000000, 24.000000)">
                <mask id="mask-18" fill="white">
                    <use xlink:href="#path-17"></use>
                </mask>
                <g fill-rule="nonzero"></g>
                <g id="✱-/-Color-/-Icons-/-Black-/-Active" mask="url(#mask-18)" fill="#000000" fill-opacity="0.87" fill-rule="evenodd">
                    <rect id="Rectangle-13" x="0" y="0" width="16" height="16"></rect>
                </g>
            </g>
            <g id="icon/toggle/check_box_24px" transform="translate(24.000000, 24.000000)">
                <mask id="mask-20" fill="white">
                    <use xlink:href="#path-19"></use>
                </mask>
                <g fill-rule="nonzero"></g>
                <g id="✱-/-Color-/-Icons-/-Black-/-Active" mask="url(#mask-20)" fill="#000000" fill-opacity="0.87" fill-rule="evenodd">
                    <rect id="Rectangle-13" x="0" y="0" width="16" height="16"></rect>
                </g>
            </g>
            <g id="icon/toggle/radio_button_unchecked_24px" transform="translate(48.000000, 24.000000)">
                <mask id="mask-22" fill="white">
                    <use xlink:href="#path-21"></use>
                </mask>
                <g fill-rule="nonzero"></g>
                <g id="✱-/-Color-/-Icons-/-Black-/-Active" mask="url(#mask-22)" fill="#000000" fill-opacity="0.87" fill-rule="evenodd">
                    <rect id="Rectangle-13" x="0" y="0" width="16" height="16"></rect>
                </g>
            </g>
            <g id="icon/toggle/radio_button_checked_24px" transform="translate(72.000000, 24.000000)">
                <mask id="mask-24" fill="white">
                    <use xlink:href="#path-23"></use>
                </mask>
                <g fill-rule="nonzero"></g>
                <g id="✱-/-Color-/-Icons-/-Black-/-Active" mask="url(#mask-24)" fill="#000000" fill-opacity="0.87" fill-rule="evenodd">
                    <rect id="Rectangle-13" x="0" y="0" width="16" height="16"></rect>
                </g>
            </g>
            <g id="icon/content/remove_circle_outline_24px" transform="translate(124.000000, 48.000000)">
                <mask id="mask-26" fill="white">
                    <use xlink:href="#path-25"></use>
                </mask>
                <g fill-rule="nonzero"></g>
                <g id="✱-/-Color-/-Icons-/-Black-/-Active" mask="url(#mask-26)" fill="#000000" fill-opacity="0.87" fill-rule="evenodd">
                    <rect id="Rectangle-13" x="0" y="0" width="16" height="16"></rect>
                </g>
            </g>
            <g id="icon/content/remove_circle_24px" transform="translate(148.000000, 48.000000)">
                <mask id="mask-28" fill="white">
                    <use xlink:href="#path-27"></use>
                </mask>
                <g fill-rule="nonzero"></g>
                <g id="✱-/-Color-/-Icons-/-Black-/-Active" mask="url(#mask-28)" fill="#000000" fill-opacity="0.87" fill-rule="evenodd">
                    <rect id="Rectangle-13" x="0" y="0" width="16" height="16"></rect>
                </g>
            </g>
            <g id="icon/toggle/check_box_outline_blank_24px" opacity="0.440066964" transform="translate(0.000000, 72.000000)">
                <mask id="mask-30" fill="white">
                    <use xlink:href="#path-29"></use>
                </mask>
                <g fill-rule="nonzero"></g>
                <g id="✱-/-Color-/-Icons-/-Black-/-Disabled" mask="url(#mask-30)" fill="#000000" fill-opacity="0.38" fill-rule="evenodd">
                    <rect id="Rectangle" x="0" y="0" width="16" height="16"></rect>
                </g>
            </g>
            <g id="icon/toggle/check_box_24px" opacity="0.440066964" transform="translate(24.000000, 72.000000)">
                <mask id="mask-32" fill="white">
                    <use xlink:href="#path-31"></use>
                </mask>
                <g fill-rule="nonzero"></g>
                <g id="✱-/-Color-/-Icons-/-Black-/-Disabled" mask="url(#mask-32)" fill="#000000" fill-opacity="0.38" fill-rule="evenodd">
                    <rect id="Rectangle" x="0" y="0" width="16" height="16"></rect>
                </g>
            </g>
            <g id="icon/toggle/radio_button_unchecked_24px" opacity="0.440066964" transform="translate(48.000000, 72.000000)">
                <mask id="mask-34" fill="white">
                    <use xlink:href="#path-33"></use>
                </mask>
                <g fill-rule="nonzero"></g>
                <g id="✱-/-Color-/-Icons-/-Black-/-Disabled" mask="url(#mask-34)" fill="#000000" fill-opacity="0.38" fill-rule="evenodd">
                    <rect id="Rectangle" x="0" y="0" width="16" height="16"></rect>
                </g>
            </g>
            <g id="icon/toggle/radio_button_checked_24px" opacity="0.440066964" transform="translate(72.000000, 72.000000)">
                <mask id="mask-36" fill="white">
                    <use xlink:href="#path-35"></use>
                </mask>
                <g fill-rule="nonzero"></g>
                <g id="✱-/-Color-/-Icons-/-Black-/-Disabled" mask="url(#mask-36)" fill="#000000" fill-opacity="0.38" fill-rule="evenodd">
                    <rect id="Rectangle" x="0" y="0" width="16" height="16"></rect>
                </g>
            </g>
            <circle id="Oval" fill="#979797" cx="97" cy="83" r="1"></circle>
            <circle id="Oval-Copy-14" fill="#979797" cx="117" cy="56" r="1"></circle>
            <circle id="Oval-Copy-13" fill="#979797" cx="113" cy="56" r="1"></circle>
            <circle id="Oval-Copy-12" fill="#979797" cx="109" cy="56" r="1"></circle>
            <circle id="Oval-Copy-11" fill="#979797" cx="109" cy="52" r="1"></circle>
            <circle id="Oval-Copy-10" fill="#979797" cx="109" cy="48" r="1"></circle>
            <circle id="Oval-Copy-9" fill="#979797" cx="109" cy="44" r="1"></circle>
            <circle id="Oval-Copy-8" fill="#979797" cx="109" cy="40" r="1"></circle>
            <circle id="Oval-Copy-7" fill="#979797" cx="109" cy="36" r="1"></circle>
            <circle id="Oval-Copy-8" fill="#979797" cx="117" cy="32" r="1"></circle>
            <circle id="Oval-Copy-7" fill="#979797" cx="113" cy="32" r="1"></circle>
            <circle id="Oval-Copy-6" fill="#979797" cx="109" cy="32" r="1"></circle>
            <circle id="Oval-Copy-5" fill="#979797" cx="109" cy="28" r="1"></circle>
            <circle id="Oval-Copy-4" fill="#979797" cx="109" cy="24" r="1"></circle>
            <circle id="Oval-Copy-3" fill="#979797" cx="109" cy="20" r="1"></circle>
            <circle id="Oval-Copy-2" fill="#979797" cx="109" cy="16" r="1"></circle>
            <circle id="Oval-Copy-3" fill="#979797" cx="117" cy="12" r="1"></circle>
            <circle id="Oval-Copy-2" fill="#979797" cx="113" cy="12" r="1"></circle>
            <circle id="Oval-Copy" fill="#979797" cx="109" cy="12" r="1"></circle>
            <g id="icon/toggle/indeterminate_check_box_24px" transform="translate(0.000000, 48.000000)">
                <mask id="mask-38" fill="white">
                    <use xlink:href="#path-37"></use>
                </mask>
                <g fill-rule="nonzero"></g>
                <g id="✱-/-Color-/-Icons-/-Black-/-Inactive" mask="url(#mask-38)" fill="#000000" fill-opacity="0.54" fill-rule="evenodd">
                    <rect id="Rectangle" x="0" y="0" width="16" height="16"></rect>
                </g>
            </g>
        </g>
    </g>
</svg>